<?xml version="1.0" encoding="utf-8"?>
<!-- Generator: Adobe Illustrator 16.0.4, SVG Export Plug-In . SVG Version: 6.00 Build 0)  -->
<!DOCTYPE svg PUBLIC "-//W3C//DTD SVG 1.1//EN" "http://www.w3.org/Graphics/SVG/1.1/DTD/svg11.dtd">
<svg version="1.1" id="Ebene_1" xmlns="http://www.w3.org/2000/svg" xmlns:xlink="http://www.w3.org/1999/xlink" x="0px" y="0px"
	 width="656px" height="538px" viewBox="0 0 656 538" enable-background="new 0 0 656 538" xml:space="preserve">
<g>
	<g>
		<path fill-rule="evenodd" clip-rule="evenodd" fill="#FFFFFF" d="M265.118,334.659c4.341-2.316,7.436-1.653,11.19-1.899
			c23.321-1.531,46.646-3.014,69.982-4.271c15.401-0.831,30.82-1.36,46.236-1.839c21.355-0.662,42.718-1.079,64.075-1.742
			c9.688-0.3,17.92-9.098,18.579-18.966c0.858-12.837,1.09-25.772,0.685-38.634c-0.908-28.724-0.462-57.424-1.58-86.141
			c-0.506-12.982-1.867-25.27-11.322-32.993c-4.74-3.873-22.52-7.932-28.7-9.276c-15.442-3.36-15.442-3.36-26.081-3.626
			c-4.806-0.119,3.577-9.367-1.223-17.506c-5.66-9.597-41.345-6.538-53.584-6.977c-6.148-0.22-22.355-0.554-28.523-0.297
			c-9.014,0.376-15.87,3.877-17.983,13.947c-1.224,5.836,4.797,9.056-0.987,9.419c-14.895,0.937-30.935,1.557-41.236,1.862
			c-9.933,0.294-60.838-0.313-75.687,11.124c-9.575,7.374-12.536,26.855-12.481,38.132c0.155,31.082,0.065,64.156,1.295,95.232
			c0.187,4.736,1.619,8.823,1.585,14.196c-0.104,16.646,13.987,28.031,27.272,29.867c11.321,1.564,24.639,1.044,34.275-6.925
			c4.266-3.528,6.967-7.245,7.26-13.108c1-20.066,1.179-13.5,1-20.066c-0.601-22.076-1.01-54.496,5.609-75.254
			c9.222-28.922,34.843-48.773,63.184-57.323c16.329-4.927,29.479-7.095,46.8-4.759c35.406,4.774,77.193,31.027,79.979,76.176
			c1.414,22.933-6.468,53.622-21.456,70.464c-17.142,19.265-44.178,29.756-69.99,25.648c-30.625-4.874-41.234-26.027-47.899-37.493
			c-1.359-2.338-6.639-17.963-4.893-19.466c10.213,8.105,9.401,14.174,17.734,24.618c11.266,14.551,33.268,21.557,55.432,19.072
			c26.795-3.003,44.004-19.567,52.295-44.963c7.328-22.448,2.138-52.464-12.003-70.873c-12.435-16.188-32.275-24.672-51.5-26.809
			c-38.352-4.262-81.853,16.285-92.792,52.33c-3.315,10.922-1.937,37.237-3.365,48.724c-1.684,13.543-0.78,27.168-2.646,40.683
			c-2.467,17.87-14.263,27.171-30.3,30.387c-10.236,2.052-21.102,2.492-31.516,1.599c-23.753-2.038-34.82-12.929-36.996-37.483
			c-3.466-39.111-7.523-78.259-5.017-117.654c0.384-6.044,0.875-12.132,1.995-18.065c5.115-27.121,17.841-39.503,45.058-41.204
			c24.408-1.525,48.931-2.087,73.401-1.584c9.82,0.201,10.16-0.64,14.725-11.09c3.645-8.344,12.095-11.109,20.798-11.242
			c12.627-0.189,69.58-0.422,82.203-0.094c8.265,0.214,18.861,4.04,22.871,11.704c1.93,3.69,1.829,12.57,26.471,15.601
			c15.19,2.981,16.067,2.47,27.108,8.363c9.625,5.139,16.522,20.73,16.673,35.75c0.404,40.352,0.324,80.715-0.071,121.068
			c-0.172,17.515-5.375,38.535-22.469,46.262c-6.906,3.121-14.855,5.594-22.282,5.461c-57.479-1.018-114.947-2.728-172.417-4.315
			C266.958,337.928,265.089,335.396,265.118,334.659z"/>
	</g>
</g>
<path fill="#FFFFFF" d="M410.523,211.258c-1.464-4.187-4.321-7.301-7.919-10.308c1.293,0.016,2.587,0.028,3.917,0.042
	c-2.217-5.097-11.392-8.92-21.037-8.199c-8.757,0.651-14.719,5.09-18.876,11.821c-10.773-1.404-30.734-1.5-44.647,6.741
	c-6.71-8.193-15.082-12.146-26.05-9.651c-7.032,1.602-13.339,5.927-16.682,12.768c1.696-0.289,3.022-0.515,4.349-0.739
	c-4.004,4.136-4.369,8.051-5.26,13.153c-0.623,4.838,2.355,11.974,2.551,12.185c4.084-2.403,0,0,4.084-2.403
	c0.368,1.189,4.636,11.228,11.09,14.529c1.964,1.005,2.622,2.063,2.814,4.113c0.427,4.544,0.821,8.712,2,13.138
	c0.71,2.667,2.096,5.429,7.089,9.633c0.45,0.377,14.052,11.756,31.556,14.619c2.785,0.452,4.945,0.616,8.471,0.4
	c8.827-0.424,17.61-2.772,21.129-3.908c11.19-3.62,20.126-9.749,24.702-20.414c2.938-6.847,3.297-15.138,2.103-22.364
	c-0.449-2.715,0.448-4.009,2.729-6.105c7.389-6.794,8.197-7.451,8.451-14.253c0.014-0.375,0.035-0.18-0.002-1.419
	c4.776,1.506,0,0,4.776,1.506C413.007,219.277,410.931,212.421,410.523,211.258z M327.05,253.358
	c-3.067,0.198-5.637-2.198-5.868-5.464c-0.226-3.201,1.758-5.576,4.902-5.867c3.258-0.303,5.673,1.8,5.986,5.213
	C332.371,250.515,330.202,253.157,327.05,253.358z M361.543,261.448c-0.12,3.79-2.271,6.819-6.156,7.671
	c-3.332,0.732-6.839,1.056-10.265,1.031c-3.454-0.023-6.077-1.92-7.086-5.047c-1.897-5.878-1.904-11.747,1.402-17.27
	c3.977-6.64,10.742-7.452,16.321-1.957c3.426,3.374,5.244,7.476,5.662,12.568C361.454,259.152,361.58,260.302,361.543,261.448z
	 M369.204,249.762c-3.068,0.195-5.639-2.197-5.869-5.465c-0.225-3.201,1.757-5.576,4.902-5.867c3.259-0.301,5.672,1.799,5.985,5.212
	C374.523,246.915,372.354,249.561,369.204,249.762z"/>
<g>
	<path fill="#FFFFFF" stroke="#FFFFFF" stroke-miterlimit="10" d="M233.505,411.421c0-5,0.715-9.855,2.148-14.57
		c1.432-4.713,3.555-8.893,6.367-12.539c2.812-3.645,6.262-6.574,10.352-8.789c4.088-2.213,8.789-3.32,14.102-3.32
		c5.156-0.26,9.583,0.301,13.281,1.68c3.697,1.381,6.705,3.309,9.023,5.781c2.317,2.475,4.01,5.352,5.078,8.633
		c1.067,3.281,1.549,6.693,1.445,10.234c-0.105,3.543-0.73,7.059-1.875,10.547c-1.146,3.49-2.734,6.668-4.766,9.531
		c-0.209,0.99-0.092,1.824,0.352,2.5c0.442,0.678,1.055,1.25,1.836,1.719s1.653,0.898,2.617,1.289
		c0.963,0.391,1.848,0.809,2.656,1.25c0.807,0.443,1.445,0.965,1.914,1.562c0.469,0.6,0.598,1.342,0.391,2.227
		c-0.261,0.156-0.652,0.34-1.172,0.547c-0.521,0.209-1.042,0.391-1.562,0.547c-0.521,0.156-0.99,0.287-1.406,0.391
		c-0.417,0.105-0.652,0.131-0.703,0.078c-0.834-0.156-1.602-0.48-2.305-0.977c-0.703-0.494-1.406-1.016-2.109-1.562
		s-1.42-1.055-2.148-1.523c-0.73-0.469-1.511-0.754-2.344-0.859c-1.355,1.25-3.021,2.383-5,3.398
		c-1.98,1.016-4.128,1.889-6.445,2.617c-2.318,0.73-4.74,1.289-7.266,1.68c-2.527,0.391-4.961,0.586-7.305,0.586
		c-3.125,0-6.186-0.572-9.18-1.719c-2.996-1.145-5.678-2.734-8.047-4.766c-2.371-2.031-4.285-4.426-5.742-7.188
		C234.234,417.646,233.505,414.651,233.505,411.421z M241.474,408.921c0,3.543,0.547,6.512,1.641,8.906
		c1.094,2.396,2.617,4.324,4.57,5.781c1.953,1.459,4.258,2.5,6.914,3.125s5.572,0.938,8.75,0.938c1.25,0,2.617-0.012,4.102-0.039
		c1.484-0.025,2.955-0.182,4.414-0.469c1.458-0.285,2.812-0.768,4.062-1.445c1.25-0.676,2.266-1.691,3.047-3.047l-17.812-16.25
		c-0.053,0-0.092-0.09-0.117-0.273c-0.027-0.182-0.039-0.324-0.039-0.43c0-0.625,0.129-1.105,0.391-1.445
		c0.26-0.338,0.598-0.598,1.016-0.781c0.416-0.182,0.859-0.299,1.328-0.352c0.469-0.051,0.938-0.078,1.406-0.078
		c1.77,0,3.45,0.521,5.039,1.562c1.588,1.043,3.125,2.266,4.609,3.672s2.969,2.852,4.453,4.336s3.008,2.67,4.57,3.555
		c1.301-2.082,2.305-4.023,3.008-5.82s1.211-3.566,1.523-5.312c0.312-1.744,0.494-3.555,0.547-5.43
		c0.051-1.875,0.078-3.932,0.078-6.172c-0.365-2.344-0.925-4.453-1.68-6.328c-0.756-1.875-2.07-3.477-3.945-4.805
		s-4.519-2.33-7.93-3.008c-3.412-0.676-7.93-0.988-13.555-0.938c-2.136,0-4.128,0.535-5.977,1.602
		c-1.85,1.068-3.529,2.461-5.039,4.18c-1.511,1.719-2.852,3.672-4.023,5.859s-2.148,4.414-2.93,6.68s-1.381,4.467-1.797,6.602
		C241.682,405.433,241.474,407.308,241.474,408.921z"/>
	<path fill="#FFFFFF" stroke="#FFFFFF" stroke-miterlimit="10" d="M343.193,417.827c-1.511,2.344-3.256,4.467-5.234,6.367
		c-1.98,1.902-4.154,3.516-6.523,4.844c-2.371,1.328-4.949,2.305-7.734,2.93c-2.787,0.625-5.717,0.809-8.789,0.547
		c-1.094,0-2.266-0.129-3.516-0.391c-1.25-0.26-2.41-0.676-3.477-1.25c-1.068-0.572-1.941-1.328-2.617-2.266
		c-0.678-0.938-1.016-2.109-1.016-3.516c-0.574-2.916-0.457-5.871,0.352-8.867c0.807-2.994,2.07-5.885,3.789-8.672
		c1.719-2.785,3.828-5.363,6.328-7.734c2.5-2.369,5.168-4.375,8.008-6.016c2.838-1.641,5.754-2.824,8.75-3.555
		c2.994-0.729,5.898-0.832,8.711-0.312c2.135,0,3.801,0.703,5,2.109c1.197,1.406,2.096,3.281,2.695,5.625
		c0.598,2.344,0.977,5.039,1.133,8.086s0.286,6.186,0.391,9.414c0.104,3.23,0.247,6.42,0.43,9.57
		c0.182,3.152,0.586,6.029,1.211,8.633h-5.781c-0.261-1.77-0.457-3.332-0.586-4.688c-0.131-1.354-0.248-2.617-0.352-3.789
		c-0.105-1.172-0.248-2.305-0.43-3.398C343.752,420.405,343.505,419.183,343.193,417.827z M337.255,396.968
		c-2.031-0.156-4.128,0.117-6.289,0.82c-2.162,0.703-4.246,1.693-6.25,2.969c-2.006,1.277-3.881,2.787-5.625,4.531
		c-1.746,1.746-3.269,3.555-4.57,5.43c-1.303,1.875-2.305,3.738-3.008,5.586c-0.703,1.85-0.99,3.555-0.859,5.117
		c0.129,1.562,0.715,2.891,1.758,3.984c1.041,1.094,2.656,1.824,4.844,2.188c3.125-0.051,6.133-0.846,9.023-2.383
		c2.891-1.535,5.469-3.438,7.734-5.703s4.153-4.713,5.664-7.344c1.51-2.629,2.486-5.064,2.93-7.305
		c0.442-2.238,0.247-4.113-0.586-5.625C341.187,397.724,339.599,396.968,337.255,396.968z"/>
	<path fill="#FFFFFF" stroke="#FFFFFF" stroke-miterlimit="10" d="M355.224,370.718c0.572-0.781,1.133-1.523,1.68-2.227
		s1.34-1.055,2.383-1.055c0.676,0,1.301,0.809,1.875,2.422c0.572,1.615,1.067,3.764,1.484,6.445c0.416,2.684,0.781,5.742,1.094,9.18
		s0.572,7.006,0.781,10.703c0.208,3.699,0.377,7.383,0.508,11.055c0.129,3.672,0.234,7.031,0.312,10.078s0.129,5.664,0.156,7.852
		c0.025,2.188,0.039,3.672,0.039,4.453c0,0.938-0.195,1.693-0.586,2.266c-0.391,0.574-0.886,1.029-1.484,1.367
		c-0.6,0.34-1.277,0.561-2.031,0.664c-0.756,0.104-1.472,0.156-2.148,0.156c-0.105,0-0.248-0.014-0.43-0.039
		c-0.183-0.027-0.3-0.039-0.352-0.039c0-1.354-0.039-3.424-0.117-6.211c-0.078-2.785-0.17-5.938-0.273-9.453
		c-0.105-3.516-0.209-7.213-0.312-11.094c-0.105-3.879-0.222-7.578-0.352-11.094c-0.131-3.516-0.261-6.666-0.391-9.453
		c-0.131-2.785-0.222-4.855-0.273-6.211c0-0.363-0.066-1.016-0.195-1.953c-0.131-0.938-0.273-1.926-0.43-2.969
		c-0.156-1.041-0.326-2.018-0.508-2.93C355.471,371.722,355.328,371.083,355.224,370.718z"/>
	<path fill="#FFFFFF" stroke="#FFFFFF" stroke-miterlimit="10" d="M409.755,417.827c-1.511,2.344-3.256,4.467-5.234,6.367
		c-1.98,1.902-4.154,3.516-6.523,4.844c-2.371,1.328-4.949,2.305-7.734,2.93c-2.787,0.625-5.717,0.809-8.789,0.547
		c-1.094,0-2.266-0.129-3.516-0.391c-1.25-0.26-2.41-0.676-3.477-1.25c-1.068-0.572-1.941-1.328-2.617-2.266
		c-0.678-0.938-1.016-2.109-1.016-3.516c-0.574-2.916-0.457-5.871,0.352-8.867c0.807-2.994,2.07-5.885,3.789-8.672
		c1.719-2.785,3.828-5.363,6.328-7.734c2.5-2.369,5.168-4.375,8.008-6.016c2.838-1.641,5.754-2.824,8.75-3.555
		c2.994-0.729,5.898-0.832,8.711-0.312c2.135,0,3.801,0.703,5,2.109c1.197,1.406,2.096,3.281,2.695,5.625
		c0.598,2.344,0.977,5.039,1.133,8.086s0.286,6.186,0.391,9.414c0.104,3.23,0.247,6.42,0.43,9.57
		c0.182,3.152,0.586,6.029,1.211,8.633h-5.781c-0.261-1.77-0.457-3.332-0.586-4.688c-0.131-1.354-0.248-2.617-0.352-3.789
		c-0.105-1.172-0.248-2.305-0.43-3.398C410.314,420.405,410.068,419.183,409.755,417.827z M403.818,396.968
		c-2.031-0.156-4.128,0.117-6.289,0.82c-2.162,0.703-4.246,1.693-6.25,2.969c-2.006,1.277-3.881,2.787-5.625,4.531
		c-1.746,1.746-3.269,3.555-4.57,5.43c-1.303,1.875-2.305,3.738-3.008,5.586c-0.703,1.85-0.99,3.555-0.859,5.117
		c0.129,1.562,0.715,2.891,1.758,3.984c1.041,1.094,2.656,1.824,4.844,2.188c3.125-0.051,6.133-0.846,9.023-2.383
		c2.891-1.535,5.469-3.438,7.734-5.703s4.153-4.713,5.664-7.344c1.51-2.629,2.486-5.064,2.93-7.305
		c0.442-2.238,0.247-4.113-0.586-5.625C407.75,397.724,406.162,396.968,403.818,396.968z"/>
</g>
</svg>
